<svg viewBox="0 0 36 36" fill="none" xmlns="http://www.w3.org/2000/svg">
  <circle cx="18" cy="18" r="18" fill="url(#grad)"/>
  <!-- 12 Spokes inspired by Ashoka Chakra -->
  <line x1="18" y1="18" x2="18" y2="7" stroke="white" stroke-width="1.2" stroke-linecap="round" opacity="0.75"/>
  <line x1="18" y1="18" x2="23.5" y2="8.24" stroke="white" stroke-width="1.2" stroke-linecap="round" opacity="0.75"/>
  <line x1="18" y1="18" x2="27.74" y2="12.5" stroke="white" stroke-width="1.2" stroke-linecap="round" opacity="0.75"/>
  <line x1="18" y1="18" x2="29" y2="18" stroke="white" stroke-width="1.2" stroke-linecap="round" opacity="0.75"/>
  <line x1="18" y1="18" x2="27.74" y2="23.5" stroke="white" stroke-width="1.2" stroke-linecap="round" opacity="0.75"/>
  <line x1="18" y1="18" x2="23.5" y2="27.76" stroke="white" stroke-width="1.2" stroke-linecap="round" opacity="0.75"/>
  <line x1="18" y1="18" x2="18" y2="29" stroke="white" stroke-width="1.2" stroke-linecap="round" opacity="0.75"/>
  <line x1="18" y1="18" x2="12.5" y2="27.76" stroke="white" stroke-width="1.2" stroke-linecap="round" opacity="0.75"/>
  <line x1="18" y1="18" x2="8.26" y2="23.5" stroke="white" stroke-width="1.2" stroke-linecap="round" opacity="0.75"/>
  <line x1="18" y1="18" x2="7" y2="18" stroke="white" stroke-width="1.2" stroke-linecap="round" opacity="0.75"/>
  <line x1="18" y1="18" x2="8.26" y2="12.5" stroke="white" stroke-width="1.2" stroke-linecap="round" opacity="0.75"/>
  <line x1="18" y1="18" x2="12.5" y2="8.24" stroke="white" stroke-width="1.2" stroke-linecap="round" opacity="0.75"/>
  <!-- Center circle + checkmark -->
  <circle cx="18" cy="18" r="4.5" fill="white" opacity="0.95"/>
  <path d="M15.5 18l2 2 3-3" stroke="#FF9933" stroke-width="1.6" stroke-linecap="round" stroke-linejoin="round"/>
  <defs>
    <linearGradient id="grad" x1="0" y1="0" x2="36" y2="36" gradientUnits="userSpaceOnUse">
      <stop stop-color="#FF9933"/>
      <stop offset="1" stop-color="#138808"/>
    </linearGradient>
  </defs>
</svg>
